<?xml version="1.0" encoding="utf-8"?>
<!-- Generator: Adobe Illustrator 26.0.2, SVG Export Plug-In . SVG Version: 6.00 Build 0)  -->
<svg version="1.1" id="Layer_1" xmlns="http://www.w3.org/2000/svg" xmlns:xlink="http://www.w3.org/1999/xlink" x="0px" y="0px"
	 viewBox="0 0 18 18" style="enable-background:new 0 0 18 18;" xml:space="preserve">
<style type="text/css">
	.st0{fill-rule:evenodd;clip-rule:evenodd;fill:url(#SVGID_1_);}
</style>
<linearGradient id="SVGID_1_" gradientUnits="userSpaceOnUse" x1="-6.6576" y1="24.1875" x2="21.8423" y2="0.1875" gradientTransform="matrix(1 0 0 -1 0 20)">
	<stop  offset="0" style="stop-color:#CE9626"/>
	<stop  offset="1" style="stop-color:#CE9626;stop-opacity:0"/>
</linearGradient>
<path class="st0" d="M5.4,0.7h7.2c2.8,0,4.7,2,4.7,4.9v6.8c0,2.9-1.9,4.9-4.7,4.9H5.4c-2.8,0-4.7-2-4.7-4.9V5.6
	C0.7,2.6,2.6,0.7,5.4,0.7z M8.5,11.5l4-4c0.3-0.3,0.3-0.7,0-1c-0.3-0.3-0.8-0.3-1,0L8,9.9L6.6,8.5c-0.3-0.3-0.8-0.3-1,0
	c-0.3,0.3-0.3,0.7,0,1l2,2c0.1,0.1,0.3,0.2,0.5,0.2C8.2,11.7,8.4,11.6,8.5,11.5z"/>
</svg>
