<?xml version="1.0" encoding="utf-8"?>
<!-- Generator: Adobe Illustrator 26.0.2, SVG Export Plug-In . SVG Version: 6.00 Build 0)  -->
<svg version="1.1" id="Layer_1" xmlns="http://www.w3.org/2000/svg" xmlns:xlink="http://www.w3.org/1999/xlink" x="0px" y="0px"
	 viewBox="0 0 470 290" style="enable-background:new 0 0 470 290;" xml:space="preserve">
<style type="text/css">
	.st0{fill:#E0B43D;fill-opacity:0.8;}
	.st1{opacity:0.8;fill:#245A01;enable-background:new    ;}
	.st2{clip-path:url(#SVGID_00000016758271751403771710000002916887181041319866_);}
	.st3{fill:url(#SVGID_00000029752134436690424530000007687926475852110012_);fill-opacity:0.1;}
</style>
<g>
	<path class="st0" d="M470,0v49.4L447,0H470z"/>
</g>
<g>
	<g>
		<g>
			<polygon class="st1" points="0,0 0,290 470,290 470,70.7 437,0 			"/>
		</g>
	</g>
</g>
<g>
	<g>
		<defs>
			<rect id="SVGID_1_" y="286" width="421.4" height="4"/>
		</defs>
		<clipPath id="SVGID_00000008107867214996704650000013999954784307105714_">
			<use xlink:href="#SVGID_1_"  style="overflow:visible;"/>
		</clipPath>
		<g style="clip-path:url(#SVGID_00000008107867214996704650000013999954784307105714_);">
			
				<linearGradient id="SVGID_00000147904494307306498240000009602977783710248872_" gradientUnits="userSpaceOnUse" x1="0" y1="996" x2="421.4" y2="996" gradientTransform="matrix(1 0 0 1 0 -708)">
				<stop  offset="0" style="stop-color:#FFFFFF"/>
				<stop  offset="1" style="stop-color:#FFFFFF;stop-opacity:0"/>
			</linearGradient>
			<path style="fill:url(#SVGID_00000147904494307306498240000009602977783710248872_);fill-opacity:0.1;" d="M7.4,286l-1.9,4H0
				l1.9-4H7.4z M10.9,286L9,290h5.5l1.9-4H10.9z M19.9,286l-1.9,4h5.5l1.9-4H19.9z M28.9,286l-1.9,4h5.5l1.9-4H28.9z M37.9,286
				l-1.9,4h5.5l1.9-4H37.9z M46.9,286l-1.9,4h5.5l1.9-4H46.9z M55.9,286l-1.9,4h5.5l1.9-4H55.9z M64.9,286l-1.9,4h5.5l1.9-4H64.9z
				 M73.9,286l-1.9,4h5.5l1.9-4H73.9z M82.9,286l-1.9,4h5.5l1.9-4H82.9z M91.9,286l-1.9,4h5.5l1.9-4H91.9z M100.9,286l-1.9,4h5.5
				l1.9-4H100.9z M109.9,286l-1.9,4h5.5l1.9-4H109.9z M118.9,286l-1.9,4h5.5l1.9-4H118.9z M127.9,286l-1.9,4h5.5l1.9-4H127.9z
				 M136.9,286l-1.9,4h5.5l1.9-4H136.9z M145.9,286l-1.9,4h5.5l1.9-4H145.9z M154.9,286l-1.9,4h5.5l1.9-4H154.9z M163.9,286l-1.9,4
				h5.5l1.9-4H163.9z M172.9,286l-1.9,4h5.5l1.9-4H172.9z M181.9,286l-1.9,4h5.5l1.9-4H181.9z M190.9,286l-1.9,4h5.5l1.9-4H190.9z
				 M199.9,286l-1.9,4h5.5l1.9-4H199.9z M208.9,286l-1.9,4h5.5l1.9-4H208.9z M217.9,286l-1.9,4h5.5l1.9-4H217.9z M226.9,286l-1.9,4
				h5.5l1.9-4H226.9z M235.9,286l-1.9,4h5.5l1.9-4H235.9z M244.9,286l-1.9,4h5.5l1.9-4H244.9z M253.9,286l-1.9,4h5.5l1.9-4H253.9z
				 M262.9,286l-1.9,4h5.5l1.9-4H262.9z M271.9,286l-1.9,4h5.5l1.9-4H271.9z M280.9,286l-1.9,4h5.5l1.9-4H280.9z M289.9,286l-1.9,4
				h5.5l1.9-4H289.9z M298.9,286l-1.9,4h5.5l1.9-4H298.9z M307.9,286l-1.9,4h5.5l1.9-4H307.9z M316.9,286l-1.9,4h5.5l1.9-4H316.9z
				 M325.9,286l-1.9,4h5.5l1.9-4H325.9z M334.9,286l-1.9,4h5.5l1.9-4H334.9z M343.9,286l-1.9,4h5.5l1.9-4H343.9z M352.9,286l-1.9,4
				h5.5l1.9-4H352.9z M361.9,286l-1.9,4h5.5l1.9-4H361.9z M370.9,286l-1.9,4h5.5l1.9-4H370.9z M379.9,286l-1.9,4h5.5l1.9-4H379.9z
				 M388.9,286l-1.9,4h5.5l1.9-4H388.9z M397.9,286l-1.9,4h5.5l1.9-4H397.9z M406.9,286l-1.9,4h5.5l1.9-4H406.9z M415.9,286l-1.9,4
				h5.5l1.9-4H415.9z"/>
		</g>
	</g>
</g>
</svg>
