<?xml version="1.0" encoding="utf-8"?>
<!-- Generator: Adobe Illustrator 26.0.2, SVG Export Plug-In . SVG Version: 6.00 Build 0)  -->
<svg version="1.1" id="Layer_1" xmlns="http://www.w3.org/2000/svg" xmlns:xlink="http://www.w3.org/1999/xlink" x="0px" y="0px"
	 viewBox="0 0 470 253" style="enable-background:new 0 0 470 253;" xml:space="preserve">
<style type="text/css">
	.st0{opacity:0.8;fill:#E0B43D;}
	.st1{opacity:0.8;enable-background:new    ;}
	.st2{fill:#245A01;fill-opacity:0.8;}
	.st3{clip-path:url(#SVGID_00000105393978783308410050000005942269361342653597_);}
	.st4{fill:url(#SVGID_00000029004159529230776040000009123564794412546709_);fill-opacity:0.1;}
</style>
<g>
	<g>
		<g>
			<polygon class="st0" points="0,0 0,49.4 23,0 			"/>
		</g>
	</g>
</g>
<g class="st1">
	<path class="st2" d="M470,0v253H0V70.7L33,0H470z"/>
</g>
<g>
	<defs>
		<rect id="SVGID_1_" x="48" y="249" width="421.4" height="4"/>
	</defs>
	<clipPath id="SVGID_00000156572654381611299740000012342949213916317116_">
		<use xlink:href="#SVGID_1_"  style="overflow:visible;"/>
	</clipPath>
	<g style="clip-path:url(#SVGID_00000156572654381611299740000012342949213916317116_);">
		
			<linearGradient id="SVGID_00000027582777842063067310000013430083968420685698_" gradientUnits="userSpaceOnUse" x1="48" y1="3" x2="469.4" y2="3" gradientTransform="matrix(1 0 0 -1 0 254)">
			<stop  offset="0" style="stop-color:#FFFFFF;stop-opacity:0"/>
			<stop  offset="1" style="stop-color:#FFFFFF"/>
		</linearGradient>
		<path style="fill:url(#SVGID_00000027582777842063067310000013430083968420685698_);fill-opacity:0.1;" d="M55.4,249l-1.9,4H48
			l1.9-4H55.4z M58.9,249l-1.9,4h5.5l1.9-4H58.9z M67.9,249l-1.9,4h5.5l1.9-4H67.9z M76.9,249l-1.9,4h5.5l1.9-4H76.9z M85.9,249
			l-1.9,4h5.5l1.9-4H85.9z M94.9,249l-1.9,4h5.5l1.9-4H94.9z M103.9,249l-1.9,4h5.5l1.9-4H103.9z M112.9,249l-1.9,4h5.5l1.9-4H112.9
			z M121.9,249l-1.9,4h5.5l1.9-4H121.9z M130.9,249l-1.9,4h5.5l1.9-4H130.9z M139.9,249l-1.9,4h5.5l1.9-4H139.9z M148.9,249l-1.9,4
			h5.5l1.9-4H148.9z M157.9,249l-1.9,4h5.5l1.9-4H157.9z M166.9,249l-1.9,4h5.5l1.9-4H166.9z M175.9,249l-1.9,4h5.5l1.9-4H175.9z
			 M184.9,249l-1.9,4h5.5l1.9-4H184.9z M193.9,249l-1.9,4h5.5l1.9-4H193.9z M202.9,249l-1.9,4h5.5l1.9-4H202.9z M211.9,249l-1.9,4
			h5.5l1.9-4H211.9z M220.9,249l-1.9,4h5.5l1.9-4H220.9z M229.9,249l-1.9,4h5.5l1.9-4H229.9z M238.9,249l-1.9,4h5.5l1.9-4H238.9z
			 M247.9,249l-1.9,4h5.5l1.9-4H247.9z M256.9,249l-1.9,4h5.5l1.9-4H256.9z M265.9,249l-1.9,4h5.5l1.9-4H265.9z M274.9,249l-1.9,4
			h5.5l1.9-4H274.9z M283.9,249l-1.9,4h5.5l1.9-4H283.9z M292.9,249l-1.9,4h5.5l1.9-4H292.9z M301.9,249l-1.9,4h5.5l1.9-4H301.9z
			 M310.9,249l-1.9,4h5.5l1.9-4H310.9z M319.9,249l-1.9,4h5.5l1.9-4H319.9z M328.9,249l-1.9,4h5.5l1.9-4H328.9z M337.9,249l-1.9,4
			h5.5l1.9-4H337.9z M346.9,249l-1.9,4h5.5l1.9-4H346.9z M355.9,249l-1.9,4h5.5l1.9-4H355.9z M364.9,249l-1.9,4h5.5l1.9-4H364.9z
			 M373.9,249l-1.9,4h5.5l1.9-4H373.9z M382.9,249l-1.9,4h5.5l1.9-4H382.9z M391.9,249l-1.9,4h5.5l1.9-4H391.9z M400.9,249l-1.9,4
			h5.5l1.9-4H400.9z M409.9,249l-1.9,4h5.5l1.9-4H409.9z M418.9,249l-1.9,4h5.5l1.9-4H418.9z M427.9,249l-1.9,4h5.5l1.9-4H427.9z
			 M436.9,249l-1.9,4h5.5l1.9-4H436.9z M445.9,249l-1.9,4h5.5l1.9-4H445.9z M454.9,249l-1.9,4h5.5l1.9-4H454.9z M463.9,249l-1.9,4
			h5.5l1.9-4H463.9z"/>
	</g>
</g>
</svg>
