<?xml version="1.0" encoding="utf-8"?>
<!-- Generator: Adobe Illustrator 26.0.2, SVG Export Plug-In . SVG Version: 6.00 Build 0)  -->
<svg version="1.1" id="Layer_1" xmlns="http://www.w3.org/2000/svg" xmlns:xlink="http://www.w3.org/1999/xlink" x="0px" y="0px"
	 viewBox="0 0 470 216" style="enable-background:new 0 0 470 216;" xml:space="preserve">
<style type="text/css">
	.st0{fill:#E0B43D;fill-opacity:0.8;}
	.st1{opacity:0.8;fill:#245A01;}
	.st2{clip-path:url(#SVGID_00000129165846245493003200000009610860746392778429_);}
	.st3{fill:url(#SVGID_00000092428168502271120160000012397756039165627563_);fill-opacity:0.1;}
</style>
<g>
	<path class="st0" d="M470,0v49.4L447,0H470z"/>
</g>
<g>
	<g>
		<g>
			<polygon class="st1" points="437,0 470,70.7 470,216 0,216 0,0 			"/>
		</g>
	</g>
</g>
<g>
	<defs>
		<rect id="SVGID_1_" y="212" width="421.4" height="4"/>
	</defs>
	<clipPath id="SVGID_00000011020208453241317000000000438687383783900093_">
		<use xlink:href="#SVGID_1_"  style="overflow:visible;"/>
	</clipPath>
	<g style="clip-path:url(#SVGID_00000011020208453241317000000000438687383783900093_);">
		
			<linearGradient id="SVGID_00000000211054270325834110000017294650750446632868_" gradientUnits="userSpaceOnUse" x1="0" y1="4" x2="421.4" y2="4" gradientTransform="matrix(1 0 0 -1 0 218)">
			<stop  offset="0" style="stop-color:#FFFFFF"/>
			<stop  offset="1" style="stop-color:#FFFFFF;stop-opacity:0"/>
		</linearGradient>
		<path style="fill:url(#SVGID_00000000211054270325834110000017294650750446632868_);fill-opacity:0.1;" d="M7.4,212l-1.9,4H0
			l1.9-4H7.4z M10.9,212L9,216h5.5l1.9-4H10.9z M19.9,212l-1.9,4h5.5l1.9-4H19.9z M28.9,212l-1.9,4h5.5l1.9-4H28.9z M37.9,212
			l-1.9,4h5.5l1.9-4H37.9z M46.9,212l-1.9,4h5.5l1.9-4H46.9z M55.9,212l-1.9,4h5.5l1.9-4H55.9z M64.9,212l-1.9,4h5.5l1.9-4H64.9z
			 M73.9,212l-1.9,4h5.5l1.9-4H73.9z M82.9,212l-1.9,4h5.5l1.9-4H82.9z M91.9,212l-1.9,4h5.5l1.9-4H91.9z M100.9,212l-1.9,4h5.5
			l1.9-4H100.9z M109.9,212l-1.9,4h5.5l1.9-4H109.9z M118.9,212l-1.9,4h5.5l1.9-4H118.9z M127.9,212l-1.9,4h5.5l1.9-4H127.9z
			 M136.9,212l-1.9,4h5.5l1.9-4H136.9z M145.9,212l-1.9,4h5.5l1.9-4H145.9z M154.9,212l-1.9,4h5.5l1.9-4H154.9z M163.9,212l-1.9,4
			h5.5l1.9-4H163.9z M172.9,212l-1.9,4h5.5l1.9-4H172.9z M181.9,212l-1.9,4h5.5l1.9-4H181.9z M190.9,212l-1.9,4h5.5l1.9-4H190.9z
			 M199.9,212l-1.9,4h5.5l1.9-4H199.9z M208.9,212l-1.9,4h5.5l1.9-4H208.9z M217.9,212l-1.9,4h5.5l1.9-4H217.9z M226.9,212l-1.9,4
			h5.5l1.9-4H226.9z M235.9,212l-1.9,4h5.5l1.9-4H235.9z M244.9,212l-1.9,4h5.5l1.9-4H244.9z M253.9,212l-1.9,4h5.5l1.9-4H253.9z
			 M262.9,212l-1.9,4h5.5l1.9-4H262.9z M271.9,212l-1.9,4h5.5l1.9-4H271.9z M280.9,212l-1.9,4h5.5l1.9-4H280.9z M289.9,212l-1.9,4
			h5.5l1.9-4H289.9z M298.9,212l-1.9,4h5.5l1.9-4H298.9z M307.9,212l-1.9,4h5.5l1.9-4H307.9z M316.9,212l-1.9,4h5.5l1.9-4H316.9z
			 M325.9,212l-1.9,4h5.5l1.9-4H325.9z M334.9,212l-1.9,4h5.5l1.9-4H334.9z M343.9,212l-1.9,4h5.5l1.9-4H343.9z M352.9,212l-1.9,4
			h5.5l1.9-4H352.9z M361.9,212l-1.9,4h5.5l1.9-4H361.9z M370.9,212l-1.9,4h5.5l1.9-4H370.9z M379.9,212l-1.9,4h5.5l1.9-4H379.9z
			 M388.9,212l-1.9,4h5.5l1.9-4H388.9z M397.9,212l-1.9,4h5.5l1.9-4H397.9z M406.9,212l-1.9,4h5.5l1.9-4H406.9z M415.9,212l-1.9,4
			h5.5l1.9-4H415.9z"/>
	</g>
</g>
</svg>
